PathFileType	4	(X/Y/Z)	Patient4_TMGait_0pt2_03_left_12.trc.trc
DataRate	CameraRate	NumFrames	NumMarkers	Units	OrigDataRate	OrigDataStartFrame	OrigNumFrames
44.585987261146	44.585987261146	6	33	mm	44.585987261146	36	       141
Frame#	Time	Sacral			L.Shoulder			Chest			R.Shoulder			Neck			R.ASIS			L.ASIS			R.Thigh.Superior			R.Thigh.Lateral			R.Thigh.Inferior			R.Patella			L.Thigh.Superior			L.Thigh.Lateral			L.Thigh.Inferior			L.Patella			L.Shank.Superior			L.Shank.Lateral			L.Shank.Inferior			R.Shank.Superior			R.Shank.Lateral			R.Shank.Inferior			R.Heel			R.Midfoot.Superior			R.Midfoot.Lateral			R.Toe			L.Heel			L.Midfoot.Lateral			L.Midfoot.Superior			L.Toe			L.Elbow			L.Wrist			R.Elbow			R.Wrist			
		X1	Y1	Z1	X2	Y2	Z2	X3	Y3	Z3	X4	Y4	Z4	X5	Y5	Z5	X6	Y6	Z6	X7	Y7	Z7	X8	Y8	Z8	X9	Y9	Z9	X10	Y10	Z10	X11	Y11	Z11	X12	Y12	Z12	X13	Y13	Z13	X14	Y14	Z14	X15	Y15	Z15	X16	Y16	Z16	X17	Y17	Z17	X18	Y18	Z18	X19	Y19	Z19	X20	Y20	Z20	X21	Y21	Z21	X22	Y22	Z22	X23	Y23	Z23	X24	Y24	Z24	X25	Y25	Z25	X26	Y26	Z26	X27	Y27	Z27	X28	Y28	Z28	X29	Y29	Z29	X30	Y30	Z30	X31	Y31	Z31	X32	Y32	Z32	X33	Y33	Z33	

36	25.265000000000	789.097658081167	998.551016187589	559.701435312232	912.646209356301	1415.758298588081	329.547516215863	1054.561004943069	1350.571338847697	459.714891336041	1021.072910981886	1435.517611673788	642.841369931216	931.094065050913	1482.460217059825	481.901253255937	1033.040708996536	929.774962439320	633.782306854164	971.779813377547	949.473296862597	365.601114383231	1026.751173998928	714.230558639842	603.971127834931	933.548021196917	617.352247035408	677.673379438985	982.319276739105	554.078427556064	589.106431963322	961.204954134599	464.114140061394	596.324823116714	1055.309978077256	764.074588802207	400.157746326036	990.209888675476	626.348150337009	327.590684109540	1097.133017004541	572.868361179015	388.778829538706	1110.995869724405	502.243950822206	391.175994666818	1091.114826403754	427.358116458235	377.935937492369	1013.609571068857	309.285575010072	314.982349142591	1076.048815621634	198.179667614132	378.698364499398	911.698334259191	383.979801225923	610.362371761465	825.945684412817	300.321245567069	684.667004573347	833.589772852557	198.912516740148	620.208729230043	665.120405674913	53.686730713962	609.217597660656	841.016365129937	97.822494143163	632.086753578964	752.677314983108	42.808584568433	677.667401021642	959.118540427721	39.933032021812	653.920573971940	957.776458715267	37.536415335085	400.143143398535	1039.581535334944	35.965987551924	327.104112661553	1118.733703881567	98.198674010366	361.930710533229	1249.187207454020	50.492821340327	346.489882038915	755.412062958860	1100.483443496173	253.540159327672	737.208241191771	841.571481309319	293.349420053795	1235.590995213340	1173.180344030392	730.017953346325	1383.779464030446	1322.701232374675	595.691388877125	
37	25.287428571429	790.343716701081	1000.390556937390	552.266412701471	917.460877462016	1416.648925900130	322.663002503155	1057.834959385544	1351.245634805907	454.336922909123	1022.758396893983	1436.736011949223	636.911801444758	934.292672721861	1483.629158358456	475.237782506278	1033.183286243232	930.765215047092	629.058914471342	974.814216663791	950.251697519586	360.224115238865	1025.414354664268	714.998333922558	600.662338832260	931.006814074786	619.408461227427	674.581451502126	980.197328479959	554.980087742846	587.038007936050	958.491608706039	465.349875496589	594.701435438244	1056.860833857897	764.283841150556	395.785158219526	991.060178546314	626.646054689050	323.551189458410	1097.184330114108	572.748343308799	385.578478679867	1110.402696309309	502.002987101819	388.706494232068	1090.175177624089	426.963469850033	375.830850623175	1012.193968266135	309.122041777571	313.063014797803	1073.104123466558	198.012292220446	378.112774980845	908.781045103919	385.613547882100	608.943400752456	822.321535684062	302.867804456694	683.313970167131	830.253178336035	200.750436574086	619.699012741481	661.240793268337	56.543994673450	609.178199489746	837.540897191649	98.423368834432	632.083205038914	748.703721398217	44.500902863340	677.537872896602	954.908117250329	39.376073405682	653.946232849000	953.540572792737	37.857107511314	400.125643837428	1035.283231542504	36.084509443068	327.004996020252	1114.513506575711	98.261864562198	361.754888564017	1244.922945252148	50.383641158763	346.316564476525	761.914129291541	1101.497127707073	242.169041833353	746.607751742977	841.906812735765	278.991051549349	1235.280321917613	1172.881281476150	725.555925360981	1388.221761056590	1318.586139431012	591.924016898974	
38	25.309857142857	791.527673968933	1002.389361509696	544.664557851932	922.473990766982	1417.753892717067	315.774965777145	1061.027359388902	1352.183022145307	449.232630800268	1023.990747938743	1438.212673277908	631.160753053507	937.382627193233	1485.006595538782	468.611122659997	1033.154767980054	932.049701782844	624.493137303466	977.973872629806	951.147401359290	354.968988547992	1024.093108068690	716.084278127195	597.522310473764	928.501392778444	621.738197435716	671.581372933947	978.234561794084	556.131014521520	585.113167010061	956.064305264929	466.789502238859	593.270741000407	1058.130016801136	764.288042654866	391.297488706288	991.267329973473	626.926553396746	319.460255554819	1096.494519960990	572.472921091006	382.307873982452	1108.954243201213	501.728454283127	386.142599737857	1088.498869879554	426.596373251529	373.629224131247	1010.174455604326	308.860335557318	311.137886474508	1069.824034249738	197.859965565880	377.443999203112	906.070613752439	387.503234469870	607.665012337047	818.758135490493	305.741137458257	682.019768189395	827.080293308647	202.881437390365	619.294782876081	657.425712778412	59.767879265983	609.114816211298	834.242488147121	99.100257678064	632.090738753134	744.773493252473	46.400049181677	677.401158640405	950.710066483522	38.860102186477	653.937670619291	949.204031525108	38.082097338024	400.081991113711	1030.896937076333	36.153553405810	326.891776343125	1110.185276663762	98.308952681093	361.559521903282	1240.562329859761	50.297808071690	346.139340694002	768.845653213826	1102.680739408631	230.706432529223	756.378571912487	842.515270240267	264.783053129974	1233.808736584243	1172.344804338318	721.829715509545	1392.584642513466	1313.468498885261	589.445649789124	
39	25.332285714286	792.647438912881	1004.539302419834	536.966704490965	927.635146593223	1419.045777935527	308.926673839636	1064.117249971946	1353.367783580665	444.405286077616	1024.796026347210	1439.939409599029	625.589833375320	940.345366712862	1486.575160708949	462.040777613426	1032.965306275416	933.608321888056	620.080757396310	981.203394961413	952.153997729871	349.864956076612	1022.876877785074	717.464454159960	594.536211553409	926.161020336349	624.270753517076	668.642042595744	976.588544555732	557.490582893223	583.299263185297	954.109102232751	468.338319306440	592.023834717358	1059.077405098134	764.087267746569	386.728051269396	990.785412345252	627.205340877022	315.345668720798	1095.004441215360	572.044264463976	378.995410849293	1106.578506200298	501.426528913429	383.504646271206	1086.032888746634	426.266180506314	371.340475596521	1007.511078322380	308.496256979686	309.229333180323	1066.195689960445	197.722659771006	376.709229747914	903.703921835634	389.588137652325	606.513090616247	815.352365638676	308.917297857282	680.761276769949	824.118820649146	205.276964488243	618.981911764734	653.684459852535	63.350326525970	609.000338771018	831.126796600904	99.842038807153	632.101319461491	740.882431864926	48.495287162118	677.243927434591	946.520803050737	38.407409258695	653.892636349915	944.777452618245	38.199798605393	400.022173074850	1026.432418649520	36.167131448561	326.771408008945	1105.748079215749	98.344194080998	361.348777727564	1236.113123673937	50.261137900325	345.963605683170	776.275904566539	1103.892649510696	219.293955254692	766.641548154874	843.248192728990	250.788874939598	1231.032103384252	1171.451729465577	718.851006860039	1396.687340786043	1307.078965788266	588.337041777676	
40	25.354714285714	793.690122233741	1006.813094473715	529.236820033262	932.883139373516	1420.487715666473	302.174540292411	1067.081150605000	1354.766753438375	439.858855309141	1025.210077515422	1441.881893489369	620.209085012310	943.164948708099	1488.303979905047	455.561542763359	1032.620207748201	935.397271118427	615.805845999206	984.441902558608	953.261906261616	344.926904814418	1021.878405958612	719.099645157146	591.676362491076	924.149838313875	626.908348692219	665.719005084526	975.468716674747	559.002964354903	581.555028775211	952.860311154143	469.880314093283	590.939725384224	1059.686264263041	763.700877692630	382.120965805879	989.637955975214	627.498814118186	311.234356646495	1092.728616497395	571.482295518476	375.683517842769	1103.292454854314	501.109352029583	380.826490090654	1082.798826869416	425.985545486210	368.987845352273	1004.228623362899	308.043030879767	307.358350822083	1062.239058583894	197.607222609130	375.931667968289	901.861662871635	391.783111183273	605.459317194038	812.249246854513	312.356336141273	679.503981126535	821.444106712532	207.894680037838	618.732610901942	650.043103236734	67.301447806911	608.804523536907	828.204820380293	100.638338727878	632.105549237606	737.035697144149	50.788388097642	677.049821898512	942.339645410781	38.032416394050	653.813156593778	940.280573697666	38.220246419562	399.956274090768	1021.906955901134	36.130439373752	326.652016126044	1101.216095932618	98.371495695323	361.128204670362	1231.591656124683	50.285364794572	345.792735231477	784.260868160121	1104.988873327931	208.082066641121	777.519853369178	843.954225404148	237.062442423687	1226.853491492251	1170.098001020652	716.589080083906	1400.372599451510	1299.115700955319	588.646873996867	
41	25.377142857143	794.633266067734	1009.158680289521	521.531249273520	938.143717651423	1422.034247541566	295.586099919670	1069.888678978662	1356.329638045665	435.599760749774	1025.269054143542	1443.976441287554	615.040338870334	945.823388599223	1490.147159366142	449.223976257928	1032.123157696401	937.349752590075	611.641474557427	987.625497072028	954.453550473434	340.152976798647	1021.234128826035	720.938192499001	588.899335503652	922.670440500679	629.530607913140	662.757713516925	975.130317678056	560.601085125012	579.827854700302	952.593247912667	471.288953328112	589.981218449846	1059.968771258493	763.161841458034	377.528859418424	987.922706655761	627.815448458559	307.153644362949	1089.762261301040	570.817530675055	372.427000820989	1099.210259266184	500.787048756993	378.154427137152	1078.897454731745	425.761809734424	366.608581566858	1000.416826922467	307.524730097324	305.545020647214	1058.004354581158	197.519662364379	375.140164987165	900.766548997306	393.983360110315	604.459198615895	809.647952389289	316.004623675706	678.204248863027	819.164634191511	210.683685672938	618.506091653400	646.552950416071	71.662038587748	608.496107060631	825.497966961080	101.484052124030	632.093202914526	733.253815628641	53.303632337028	676.800274984120	938.169331116269	37.738579843767	653.706584160067	935.736211939076	38.166002655000	399.893149364602	1017.340491388680	36.055917216557	326.541964946719	1096.612370696380	98.391377028128	360.907338561203	1227.018054651448	50.367813984537	345.630433826788	792.845067665539	1105.830499422983	197.220804826737	789.137907089622	844.490778432141	223.662207488896	1221.223815498025	1168.196086171556	714.972479635113	1403.489896588576	1289.250747719304	590.391059058916	
